<?xml version="1.0" encoding="UTF-8" standalone="no"?>
<svg
   width="40"
   height="40"
   viewBox="0 0 40 40"
   fill="none"
   version="1.1"
   id="svg9"
   xmlns="http://www.w3.org/2000/svg"
   xmlns:svg="http://www.w3.org/2000/svg">
  <defs
     id="defs9" />
  <path
     style="font-size:40px;line-height:1.25;font-family:Splatoon1;-inkscape-font-specification:Splatoon1;fill:#ffffff;fill-opacity:1;stroke-width:0.893455"
     d="m 25.965148,33.999999 c 0.107215,-2.465935 0.107215,-4.14563 0.03574,-4.860393 -3.35939,-0.07148 -6.968947,-0.07148 -8.148307,-0.07148 0.03574,2.465935 0.107214,4.181368 0.142952,4.896132 2.930531,0.03574 6.754518,0.03574 7.969617,0.03574 z M 28.645512,21.849014 C 31.075709,18.704053 32.719666,15.773522 30.46816,11.056081 28.28813,6.5173304 20.961801,5.0520645 14.671879,6.5888068 8.5249104,8.125549 8.0960521,14.022349 8.632125,18.275195 c 2.787579,0.03574 6.611566,-0.07148 7.862402,-0.107215 0.107215,-3.895462 3.073485,-3.573819 3.073485,-3.573819 2.57315,0.285906 3.144961,3.323652 1.107884,5.575158 -0.07148,0.03574 -3.037747,3.35939 -2.680365,6.004016 3.144961,0.07148 6.933209,-0.03574 8.11257,-0.03574 0.321644,-1.465266 2.537411,-4.288583 2.537411,-4.288583 z"
     id="text9"
     aria-label="?" />
</svg>
