<?xml version="1.0" encoding="UTF-8" standalone="no"?>
<!-- Generator: Adobe Illustrator 19.0.0, SVG Export Plug-In . SVG Version: 6.00 Build 0)  -->

<svg
   version="1.1"
   id="Layer_1"
   x="0px"
   y="0px"
   viewBox="-281.375 400.5150146 40.75 40.75"
   style="enable-background:new -281.375 400.5150146 40.75 40.75;"
   xml:space="preserve"
   sodipodi:docname="fest.svg"
   inkscape:export-filename="fest.svg"
   inkscape:export-xdpi="94.233131"
   inkscape:export-ydpi="94.233131"
   inkscape:version="1.3 (0e150ed6c4, 2023-07-21)"
   xmlns:inkscape="http://www.inkscape.org/namespaces/inkscape"
   xmlns:sodipodi="http://sodipodi.sourceforge.net/DTD/sodipodi-0.dtd"
   xmlns="http://www.w3.org/2000/svg"
   xmlns:svg="http://www.w3.org/2000/svg"><defs
   id="defs6" /><sodipodi:namedview
   id="namedview6"
   pagecolor="#ffffff"
   bordercolor="#666666"
   borderopacity="1.0"
   inkscape:showpageshadow="2"
   inkscape:pageopacity="0.0"
   inkscape:pagecheckerboard="0"
   inkscape:deskcolor="#d1d1d1"
   inkscape:zoom="19.803681"
   inkscape:cx="20.349752"
   inkscape:cy="20.375"
   inkscape:window-width="1920"
   inkscape:window-height="1002"
   inkscape:window-x="0"
   inkscape:window-y="0"
   inkscape:window-maximized="1"
   inkscape:current-layer="Layer_1" />&#10;<style
   type="text/css"
   id="style1">&#10;	.st0{fill:#0033FF;}&#10;	.st1{fill:#FFFF00;}&#10;	.st2{fill:#999999;}&#10;</style>&#10;<circle
   cx="-261"
   cy="420.89001"
   r="17.5"
   id="circle1"
   style="stroke-width:0.858896" />&#10;<path
   class="st0"
   d="m -261,436.35014 c -8.53913,0 -15.46012,-6.921 -15.46012,-15.46013 0,-8.53915 6.92099,-15.46012 15.46012,-15.46012 8.53914,0 15.46012,6.92097 15.46012,15.46012 0,8.53913 -6.92098,15.46013 -15.46012,15.46013 z m 12.64295,-15.46013 c 0,-6.98282 -5.66012,-12.64294 -12.64295,-12.64294 -6.98283,0 -12.64295,5.66012 -12.64295,12.64294 0,6.9828 5.66012,12.64295 12.64295,12.64295 6.98283,0 12.64295,-5.66015 12.64295,-12.64295 z"
   id="path1"
   style="stroke-width:0.858896" />&#10;<path
   class="st0"
   d="m -263.82921,420.93811 2.44099,1.04269 0.0412,-0.0859 c -0.72836,-0.9568 -1.01865,-2.23141 -1.01865,-2.23141 l -1.15779,-0.6751 -2.31043,-1.34847 c -0.78333,1.27291 -0.5394,2.90651 -0.5394,2.90651 0.84689,0.14772 2.16614,0.89325 2.46848,1.07018 l 0.0275,-0.024 c -0.41225,-0.73867 -0.49987,-1.70576 -0.49987,-1.70576 l 0.31778,0.13226 c -0.0258,0.33668 0.22505,0.91902 0.22505,0.91902 h 0.005 z m 2.47536,5.88515 -0.23706,-0.007 0.0137,-2.97867 c -0.63387,-0.7833 -1.55289,-1.49103 -2.96663,-2.2314 -1.4687,-0.76957 -2.88074,-1.02552 -4.01963,-1.02723 -0.88466,0 -1.60442,0.1546 -2.0562,0.34183 -1.08049,0.45007 -2.84295,1.91534 -1.80539,5.37669 1.02895,3.43386 3.76197,4.22578 3.8032,4.23779 2.31043,-1.07189 2.66771,-4.17766 2.66771,-4.17766 l -0.12712,-0.0876 c -0.1254,0.29375 -0.54625,0.77646 -0.96539,0.78503 -0.08,0.003 -0.15947,-0.014 -0.2319,-0.0481 -0.7335,-0.33668 -0.97915,-1.58036 -0.5497,-2.08881 0.19412,-0.23019 0.45007,-0.51021 1.20074,-0.50677 0.45005,0.002 1.07879,0.10822 1.98062,0.38824 1.17498,0.36588 1.81742,0.84513 2.17644,1.23852 0.36931,0.40541 0.51534,0.93105 0.21815,0.92416 -0.11679,0 -0.30062,-0.0842 -0.56514,-0.29029 -0.41915,-0.32295 -0.6562,-0.773 -0.72663,-1.14062 -0.30062,-0.33498 -1.86209,-0.68024 -1.89645,-0.68884 1.17671,3.37202 3.03879,4.6638 3.99215,4.65693 0.0595,1.3e-4 0.11882,-0.006 0.17693,-0.0189 0.78676,-0.16833 1.31241,-1.11312 0.97572,-2.78625 -0.34589,0.09 -0.70257,0.13166 -1.05988,0.12366 z"
   id="path2"
   style="stroke-width:0.858896" />&#10;<path
   class="st1"
   d="m -259.52786,418.44043 -2.12491,1.59412 0.055,0.079 c 1.19385,-0.15116 2.44097,0.23363 2.44097,0.23363 l 0.7524,-0.42945 c 0.32981,-0.96883 0.84343,-1.68859 1.49276,-2.37743 0.0996,-0.1065 0.20097,-0.20613 0.30232,-0.30232 -0.65103,-0.54454 -1.30551,-0.8022 -1.30551,-0.8022 -0.55141,0.65961 -1.85865,1.43091 -2.161,1.6044 l 0.007,0.0361 c 0.84689,0.012 1.72639,0.42087 1.72639,0.42087 l -0.27312,0.20956 c -0.27829,-0.19066 -0.90873,-0.26452 -0.90873,-0.26452 z m -6.94847,0.11509 c 0.0948,-0.36722 0.24293,-0.71853 0.43975,-1.04269 l 0.1237,-0.20099 2.78624,1.62676 c 0.98432,-0.16319 2.04591,-0.60467 3.37548,-1.4464 2.4908,-1.57863 3.48883,-3.81177 3.63141,-4.92145 0.14945,-1.16125 -0.23705,-3.42015 -3.75337,-4.25155 -3.51634,-0.8314 -5.57252,1.17669 -5.57252,1.17669 -0.22675,2.53718 2.28467,4.39927 2.28467,4.39927 l 0.14086,-0.067 c -0.22676,-0.30232 -0.47755,-1.09595 -0.0412,-1.40514 0.6579,-0.46725 1.85865,-0.0584 2.08367,0.56858 0.16319,0.45348 0.36072,1.10625 -1.4876,2.81201 -0.90356,0.83486 -1.64049,1.15094 -2.161,1.26601 -0.7438,0.16492 -1.47557,-0.16489 -0.37619,-0.61667 0.48785,-0.20099 0.99806,-0.18209 1.35191,-0.0584 0.44662,-0.0945 1.546,-1.30038 1.546,-1.30038 -3.74307,-0.71117 -5.82674,0.43632 -6.1033,1.29351 -0.23706,0.7335 0.26452,1.61987 1.73496,2.16957 z"
   id="path3"
   style="stroke-width:0.858896" />&#10;<path
   class="st1"
   d="m -261,405.42989 c -5.90577,0 -11.03682,3.31189 -13.64097,8.17838 l 2.11631,2.08198 c 1.98405,-4.38724 6.39535,-7.44318 11.52293,-7.44318 4.22061,0 7.95511,2.06991 10.2518,5.24784 l 2.87902,-0.76786 c -2.72786,-4.38035 -7.5875,-7.29716 -13.12909,-7.29716 z"
   id="path4"
   style="stroke-width:0.858896" />&#10;<path
   class="st2"
   d="m -258.56074,425.59675 c -0.0478,-0.13709 -0.0868,-0.27708 -0.1168,-0.41915 -0.18038,-0.8228 -0.19069,-1.93765 -0.19069,-2.24514 l -0.0326,-0.0103 c -0.43288,0.72661 -1.22651,1.28491 -1.22651,1.28491 v -0.0103 h -0.002 l -0.0447,-0.34182 c 0.30405,-0.14602 0.68367,-0.6545 0.68367,-0.6545 l -0.31778,-2.62649 -0.0945,0.007 c -0.46552,1.10969 -1.42231,1.99778 -1.42231,1.99778 l -0.007,1.58553 v -0.003 l -0.0138,2.42209 c 1.48073,0.0412 2.76394,-0.96713 2.78627,-0.98429 z m 2.45129,3.49054 c 0.92933,0.70947 3.08,1.5048 5.55878,-1.12342 2.30871,-2.44958 1.85006,-5.03314 1.7762,-5.37496 -0.003,-0.0189 -0.007,-0.0292 -0.007,-0.0292 -2.08368,-1.4653 -4.95239,-0.22162 -4.95239,-0.22162 l -0.012,0.14429 c 0.3659,-0.0429 1.13718,0.12543 1.22823,0.62014 0.003,0.0189 0.007,0.0378 0.009,0.0567 0.0756,0.8039 -0.87779,1.63876 -1.53398,1.52023 -0.47411,-0.0859 -1.1389,-0.24049 -1.69203,-2.69521 v -0.0103 c -0.27312,-1.20075 -0.17865,-1.99608 -0.0189,-2.50456 0.18037,-0.57201 0.62184,-0.98256 0.72491,-0.55998 0.0309,0.11507 0.0344,0.29373 0,0.55141 -0.0704,0.52391 -0.34185,0.95509 -0.62528,1.19902 -0.0618,0.18895 -0.003,0.5892 0.0825,0.98085 0.11166,0.50675 0.26797,0.99803 0.26797,0.99803 1.98233,-2.3001 2.41521,-4.27728 2.20392,-5.32343 -0.055,-0.2611 -0.14944,-0.46552 -0.26969,-0.59951 -0.55999,-0.62011 -1.70919,-0.57891 -3.05595,0.68883 l -0.007,-0.005 c -0.10548,0.0995 -0.20802,0.20201 -0.30747,0.30749 -0.58921,0.62527 -1.03755,1.25571 -1.34504,2.027 l 0.009,-0.005 c -0.38305,0.95509 -0.54624,2.1232 -0.47925,3.76026 0.0223,0.55141 0.091,1.06846 0.19413,1.54944 0.44661,2.08711 1.52883,3.49398 2.25029,4.04539 z"
   id="path5"
   style="stroke-width:0.858896" />&#10;<path
   class="st2"
   d="m -247.86921,412.72705 -2.87901,0.76616 c 1.55729,2.15101 2.39426,4.73952 2.39117,7.39507 0,6.54995 -4.9816,11.93695 -11.36491,12.57939 l -0.75926,2.87044 h 0.005 c 8.29524,-0.27656 14.9345,-7.08762 14.9345,-15.44983 0,-2.99583 -0.85375,-5.79238 -2.32933,-8.16294 z"
   id="path6"
   style="stroke-width:0.858896" />&#10;</svg>
