<?xml version="1.0" encoding="UTF-8" standalone="no"?>
<!-- Created with Inkscape (http://www.inkscape.org/) -->

<svg
   width="256"
   height="256"
   viewBox="0 0 67.733332 67.733333"
   version="1.1"
   id="svg5"
   inkscape:version="1.3 (0e150ed6c4, 2023-07-21)"
   sodipodi:docname="icon.svg"
   inkscape:export-filename="icon.png"
   inkscape:export-xdpi="768"
   inkscape:export-ydpi="768"
   xml:space="preserve"
   xmlns:inkscape="http://www.inkscape.org/namespaces/inkscape"
   xmlns:sodipodi="http://sodipodi.sourceforge.net/DTD/sodipodi-0.dtd"
   xmlns:xlink="http://www.w3.org/1999/xlink"
   xmlns="http://www.w3.org/2000/svg"
   xmlns:svg="http://www.w3.org/2000/svg"
   xmlns:rdf="http://www.w3.org/1999/02/22-rdf-syntax-ns#"
   xmlns:cc="http://creativecommons.org/ns#"><sodipodi:namedview
     id="namedview7"
     pagecolor="#ffffff"
     bordercolor="#666666"
     borderopacity="1.0"
     inkscape:showpageshadow="2"
     inkscape:pageopacity="0.0"
     inkscape:pagecheckerboard="0"
     inkscape:deskcolor="#d1d1d1"
     inkscape:document-units="px"
     showgrid="false"
     inkscape:zoom="1.5126684"
     inkscape:cx="143.12456"
     inkscape:cy="1.6527086"
     inkscape:window-width="1920"
     inkscape:window-height="1002"
     inkscape:window-x="0"
     inkscape:window-y="0"
     inkscape:window-maximized="1"
     inkscape:current-layer="layer1" /><defs
     id="defs2"><linearGradient
       inkscape:collect="always"
       xlink:href="#linearGradient19978"
       id="linearGradient19980"
       x1="37.393978"
       y1="27.034904"
       x2="37.637512"
       y2="50.94408"
       gradientUnits="userSpaceOnUse" /><linearGradient
       inkscape:collect="always"
       id="linearGradient19978"><stop
         style="stop-color:#d75db6;stop-opacity:1;"
         offset="0.60993207"
         id="stop19974" /><stop
         style="stop-color:#72253e;stop-opacity:1;"
         offset="1"
         id="stop19976" /></linearGradient><mask
       maskUnits="userSpaceOnUse"
       id="mask1510"><path
         id="path1512"
         style="display:inline;fill:#ffffff;stroke-width:1.13618;stroke-linecap:square;stroke-miterlimit:1.5;paint-order:fill markers stroke"
         inkscape:label="eye white left"
         d="m 35.735716,34.850166 0.08537,0.243586 0.1968,0.224742 0.233528,0.05341 0.311717,0.05612 0.365606,-0.03589 0.231974,-0.158648 0.188905,-0.217739 0.07242,-0.215891 -0.06898,-0.190428 -0.170097,-0.173908 -0.26144,-0.123128 -0.343031,-0.03796 -0.343806,0.06442 -0.262686,0.139549 -0.17012,0.181507 -0.06614,0.190352 v -3e-6 z"
         sodipodi:nodetypes="ccccccccccccccccccc" /></mask><mask
       maskUnits="userSpaceOnUse"
       id="mask1514"><path
         id="path1516"
         style="display:inline;fill:#ffffff;stroke-width:1.0866;stroke-linecap:square;stroke-miterlimit:1.5;paint-order:fill markers stroke"
         inkscape:label="eye white right"
         d="m 36.245911,34.290231 -0.311332,0.06172 -0.158047,0.153306 -0.134186,0.217761 -0.02608,0.257415 0.07053,0.242626 0.132409,0.140045 0.18397,0.02641 0.305032,0.03654 0.37238,-5.2e-5 0.313824,-0.13129 0.227013,-0.233358 0.06986,-0.2155 -0.104552,-0.192969 -0.233734,-0.1825 -0.325961,-0.133743 z"
         sodipodi:nodetypes="ccccccccccccccccc" /></mask></defs><g
     inkscape:label="圖層 1"
     inkscape:groupmode="layer"
     id="layer1"><g
       id="g37975"
       inkscape:label="head"
       transform="matrix(2.8052165,0,0,2.9244833,-59.894747,-98.653393)"
       style="display:inline"><rect
         style="display:none;fill:#ffffff;fill-opacity:1;stroke-width:0.0557312;stroke-linecap:round;stroke-linejoin:round;stroke-miterlimit:1.5;paint-order:markers stroke fill"
         id="rect52975"
         width="29.13463"
         height="27.946453"
         x="18.747002"
         y="31.485348"
         inkscape:label="bg" /><path
         id="rect18344"
         style="fill:#c3309b;fill-opacity:1;stroke-width:1.67101;stroke-linecap:round;stroke-linejoin:round;stroke-miterlimit:1.5;paint-order:fill markers stroke"
         d="m 28.98903,44.536805 9.522355,0.0037 -1.117899,3.115353 -0.971756,-1.047028 -0.653237,1.342977 -2.261022,-1.56368 -1.533177,1.541473 -0.750621,-1.030309 -1.420537,0.929905 z"
         sodipodi:nodetypes="cccccccccc" /><path
         id="path35540"
         style="display:inline;fill:#fda46b;stroke-width:1.45037;stroke-linecap:square;stroke-linejoin:round;stroke-miterlimit:1.5;paint-order:stroke fill markers"
         inkscape:label="ear right"
         inkscape:transform-center-x="0.62872988"
         inkscape:transform-center-y="-0.00044519229"
         d="m 24.043057,43.307914 3.547916,-2.333652 0.460866,4.391592 z"
         sodipodi:nodetypes="cccc" /><path
         id="path35595"
         style="display:inline;fill:#fda46b;fill-opacity:1;stroke-width:1.45037;stroke-linecap:square;stroke-linejoin:round;stroke-miterlimit:1.5;paint-order:stroke fill markers"
         inkscape:label="ear left"
         inkscape:transform-center-x="-0.62872871"
         inkscape:transform-center-y="-0.00044557784"
         d="m 42.676777,43.015065 -3.067422,-2.43135 -0.245585,4.247741 z"
         sodipodi:nodetypes="cccc" /><path
         id="rect29671"
         style="fill:#fdc8a5;fill-opacity:1;stroke-width:1.09677;stroke-linecap:square;stroke-linejoin:round;stroke-miterlimit:1.5;paint-order:stroke fill markers"
         d="m 38.39172,37.52071 0.813468,1.694839 0.125744,1.812777 0.355276,1.765645 -0.317278,1.349208 -0.97076,1.445938 -1.312449,0.947714 -2.158173,0.836919 -2.234317,0.05792 -1.735663,-0.39241 -1.634732,-0.894996 -1.523362,-1.290934 -0.520494,-1.701644 0.07872,-1.797351 0.426154,-1.642051 0.05915,-1.24303 0.582927,-1.11511 2.046515,-0.464952 2.620606,0.145961 2.856779,-0.128247 2.441889,0.613807 z"
         sodipodi:nodetypes="cccccccccccccccccccccc"
         inkscape:label="face" /><g
         id="g70672"
         inkscape:label="face feat"
         transform="matrix(0.98207157,0,0,1.0056052,-4.3014549,8.1801622)"><g
           id="g34873"
           inkscape:label="mouth"
           transform="matrix(0.57497531,-0.05627087,0.05233495,0.5183568,14.843652,20.069265)"
           style="display:inline"><path
             id="rect870"
             style="fill:none;stroke:#fcaa73;stroke-width:0.476591;stroke-linecap:round;stroke-linejoin:bevel;stroke-miterlimit:1.5;stroke-dasharray:none;stroke-opacity:1;paint-order:fill markers stroke"
             d="m 40.795084,37.103417 -2.553865,0.216443 -2.360186,-0.587619 2.360186,0.587619 z"
             sodipodi:nodetypes="ccccc" /></g><path
           id="path37896"
           style="display:inline;fill:#fcaa73;stroke-width:1.56215;stroke-linecap:square;stroke-linejoin:round;stroke-miterlimit:1.5;paint-order:stroke fill markers"
           inkscape:label="nose"
           d="m 39.278198,35.808267 -0.926477,0.0076 0.461803,-0.805408 0.464674,0.797837 z"
           sodipodi:nodetypes="ccccc" /><g
           id="g1668"
           inkscape:label="blush"
           transform="matrix(1,0,0,0.97659753,0.78589338,2.0453625)"
           style="display:inline"><path
             id="rect1664"
             style="fill:#e1536c;fill-opacity:0.60012;stroke-width:0.0930941;stroke-linecap:round;stroke-linejoin:round;stroke-miterlimit:1.5;paint-order:markers stroke fill"
             d="m 33.788838,35.064601 0.781459,-0.256338 0.96843,0.254491 -0.0046,0.496861 -0.872025,0.259051 -0.920408,-0.259051 z"
             sodipodi:nodetypes="ccccccc" /><path
             id="path1670"
             style="fill:#e1536c;fill-opacity:0.598706;stroke-width:0.0930941;stroke-linecap:round;stroke-linejoin:round;stroke-miterlimit:1.5;paint-order:markers stroke fill"
             d="m 41.9493,35.048411 -0.781459,-0.256338 -0.96843,0.254491 0.0046,0.496861 0.872025,0.259051 0.920408,-0.259051 z"
             sodipodi:nodetypes="ccccccc" /></g><g
           id="g30205"
           inkscape:label="eye"
           transform="matrix(-4.9609034,-0.36981813,-0.3564716,5.4591009,226.8162,-117.27592)"
           style="display:inline"><path
             id="rect29546"
             style="display:inline;stroke-width:0.490309;stroke-linecap:square;stroke-miterlimit:1.5;paint-order:fill markers stroke"
             inkscape:label="eye patch"
             d="m 35.236046,30.024465 0.09529,0.02788 0.169333,0.05186 0.138174,0.05134 0.09463,0.02734 0.101921,-0.01107 0.158884,-0.0332 0.178516,-0.03302 0.160816,-0.01052 0.109674,0.01921 0.07789,0.0434 0.07289,0.07771 0.03331,0.109759 -0.02459,0.111803 -0.06492,0.06016 -0.09224,0.01782 -0.114393,0.01205 -0.109139,-0.002 -0.109803,-0.02056 -0.08867,-0.02635 -0.08252,-0.0578 -0.0588,-0.06912 -0.04789,-0.05217 -0.04751,-0.03561 -0.05767,-0.01942 -0.06269,0.0086 -0.05766,0.0385 -0.05576,0.05285 -0.057,0.0517 -0.05153,0.04347 -0.0641,0.01472 -0.0905,0.0088 -0.103177,-0.01488 -0.109937,-0.02042 -0.107633,-0.0497 -0.06189,-0.104649 -0.0092,-0.109543 0.04723,-0.08586 0.08581,-0.05068 0.126953,-0.02189 0.07784,-5.07e-4 v -10e-7 0 -1e-6 z"
             sodipodi:nodetypes="ccccccccccccccccccccccccccccccccccccccccccccc" /><path
             id="path35304"
             style="display:inline;fill:#ffffff;stroke-width:0.366379;stroke-linecap:square;stroke-miterlimit:1.5;paint-order:fill markers stroke"
             inkscape:label="eye white right"
             d="m 36.330343,30.142893 0.110734,0.02568 0.05434,0.05159 0.04479,0.07149 0.0054,0.08188 -0.02903,0.07529 -0.04965,0.04164 -0.0664,0.0047 -0.109984,0.0055 -0.133581,-0.0074 -0.110559,-0.04772 -0.07785,-0.07826 -0.02175,-0.0695 0.04047,-0.05892 0.08665,-0.05305 0.118985,-0.03581 z"
             sodipodi:nodetypes="ccccccccccccccccc" /><path
             id="path35306"
             style="display:inline;fill:#ffffff;stroke-width:0.372684;stroke-linecap:square;stroke-miterlimit:1.5;paint-order:fill markers stroke"
             inkscape:label="eye white left"
             d="m 35.525304,30.268701 -0.03315,0.07399 -0.07138,0.066 -0.08151,0.0121 -0.108574,0.01144 -0.125822,-0.01816 -0.0778,-0.05371 -0.06203,-0.07123 -0.0218,-0.06842 0.02669,-0.0578 0.06139,-0.05073 0.0922,-0.03321 0.119125,-0.0052 0.117861,0.0266 0.0887,0.04837 0.05608,0.05962 0.02001,0.06037 v -10e-7 z"
             sodipodi:nodetypes="ccccccccccccccccccc" /><g
             id="g35470"
             inkscape:label="pupil"
             transform="matrix(-0.35872427,-0.01982705,-0.015364,0.3160773,49.859466,20.023179)"
             style="display:inline"
             mask="url(#mask1514)"><path
               id="path35360"
               style="fill:#9ae4b6;fill-opacity:1;stroke-width:1.05833;stroke-linecap:square;stroke-linejoin:round;stroke-miterlimit:1.5;paint-order:stroke fill markers"
               transform="translate(0.27163836,-0.48565381)"
               d="m 36.776567,35.965667 -0.272994,0.21449 -0.343664,0.04926 -0.32225,-0.129174 -0.21449,-0.272993 -0.04926,-0.343665 0.129174,-0.32225 0.272993,-0.21449 0.343664,-0.04926 0.322251,0.129174 0.21449,0.272993 0.04926,0.343664 z"
               sodipodi:nodetypes="ccccccccccccc"
               mask="none" /><path
               id="path35466"
               style="stroke-width:1.05833;stroke-linecap:square;stroke-linejoin:round;stroke-miterlimit:1.5;paint-order:stroke fill markers"
               transform="matrix(0.85956232,0,0,0.85956232,4.2214037,4.3662852)"
               d="m 37.979563,36.051364 -0.207124,0.15761 -0.258179,0.03293 -0.240055,-0.100569 -0.15761,-0.207124 -0.03293,-0.258179 0.10057,-0.240056 0.207123,-0.157609 0.258179,-0.03293 0.240056,0.100569 0.157609,0.207124 0.03293,0.258179 z"
               sodipodi:nodetypes="ccccccccccccc"
               mask="none" /></g><g
             id="g35479"
             inkscape:label="pupil"
             transform="matrix(-0.34561527,-0.01919635,-0.01496354,0.31048037,48.397595,20.134404)"
             style="display:inline"
             mask="url(#mask1510)"><path
               id="path35475"
               style="fill:#9ae4b6;fill-opacity:1;stroke-width:1.05833;stroke-linecap:square;stroke-linejoin:round;stroke-miterlimit:1.5;paint-order:stroke fill markers"
               transform="translate(0.27163836,-0.48565381)"
               d="m 36.776567,35.965667 -0.272994,0.21449 -0.343664,0.04926 -0.32225,-0.129174 -0.21449,-0.272993 -0.04926,-0.343665 0.129174,-0.32225 0.272993,-0.21449 0.343664,-0.04926 0.322251,0.129174 0.21449,0.272993 0.04926,0.343664 z"
               sodipodi:nodetypes="ccccccccccccc"
               mask="none" /><path
               id="path35477"
               style="stroke-width:1.05833;stroke-linecap:square;stroke-linejoin:round;stroke-miterlimit:1.5;paint-order:stroke fill markers"
               transform="matrix(0.83285988,0,0,0.83285988,5.2089895,5.3229799)"
               d="m 37.979563,36.051364 -0.207124,0.15761 -0.258179,0.03293 -0.240055,-0.100569 -0.15761,-0.207124 -0.03293,-0.258179 0.10057,-0.240056 0.207123,-0.157609 0.258179,-0.03293 0.240056,0.100569 0.157609,0.207124 0.03293,0.258179 z"
               sodipodi:nodetypes="ccccccccccccc"
               mask="none" /></g></g><g
           id="g30026"
           inkscape:label="lashes"
           transform="matrix(-5.0305463,-0.26398607,-0.26398607,5.0305463,228.30026,-108.14279)"
           style="display:inline"><path
             id="rect29990"
             style="display:inline;fill:#d769b8;fill-opacity:1;stroke-width:0.520694;stroke-linecap:square;stroke-miterlimit:1.5;paint-order:fill markers stroke"
             inkscape:label="right"
             d="m 35.915628,30.030952 -0.120426,0.0048 -0.185015,-0.07922 -0.165163,-0.101115 -0.06087,-0.06086 0.105216,0.01301 0.200226,0.06139 0.180373,0.08328 z"
             sodipodi:nodetypes="ccccccccc" /><path
             id="path29993"
             style="display:inline;fill:#d769b8;fill-opacity:1;stroke-width:0.529;stroke-linecap:square;stroke-miterlimit:1.5;paint-order:fill markers stroke"
             inkscape:label="left"
             d="m 36.289844,30.040177 0.118904,0.0206 0.208288,-0.04566 0.195369,-0.06948 0.08015,-0.05086 -0.1082,-0.0054 -0.218992,0.03049 -0.206072,0.0543 z"
             sodipodi:nodetypes="ccccccccc" /></g></g><g
         id="g36924"
         inkscape:label="hair"
         transform="matrix(1.0987414,0,0,1.0987414,-7.9059909,5.4315595)"><path
           id="rect35600"
           style="fill:#aeaea3;stroke-width:1.05833;stroke-linecap:square;stroke-linejoin:round;stroke-miterlimit:1.5;paint-order:stroke fill markers"
           d="m 41.923281,29.661315 1.050492,1.052998 1.531417,6.171554 0.09907,8.639851 -0.879433,-0.529024 -1.019313,-1.298712 -0.511042,-1.715999 0.08951,-2.27992 0.08266,-2.043549 -0.06585,-4.913933 -0.365942,-1.368141 -3.937009,-0.07922 -4.280216,0.513 -0.363294,1.669894 -0.07233,3.141048 -0.08594,3.208248 0.06646,0.774883 -0.09735,2.060793 -0.867365,1.953479 -1.064108,0.774783 -0.326868,-6.624247 -0.01674,-2.654252 3.321293,-7.596157 z"
           sodipodi:nodetypes="cccccccccccccccccccccccc"
           inkscape:label="hair under" /><path
           id="rect32630"
           style="fill:url(#linearGradient19980);fill-opacity:1;stroke-width:1.05833;stroke-linecap:square;stroke-linejoin:round;stroke-miterlimit:1.5;paint-order:stroke fill markers"
           d="m 37.39398,27.034904 2.632876,0.439734 2.327664,1.213765 1.653413,1.777999 0.535306,1.606133 -0.01953,4.551886 0.257508,2.21719 1.210186,1.878237 0.198779,1.98247 -0.571611,1.763518 -1.01431,1.059883 -1.406642,-2.542542 -0.644955,-3.364458 0.0055,-2.138428 -0.03195,-4.880096 -0.832776,-2.846913 0.12554,1.432039 -2.18614,-0.200864 -0.01155,-1.428784 -0.294254,1.484349 -2.631634,0.11237 -3.201718,0.496788 -0.430082,1.804811 -0.13822,3.129505 -0.06646,2.995853 -0.172451,2.441306 -0.839489,2.007816 -0.613244,1.364877 -1.087744,0.168354 -0.805782,-1.4614 -0.298968,-1.594257 0.64569,-1.79156 1.021755,-2.177971 0.119091,-2.484881 -0.289092,-3.463134 0.772944,-1.907265 1.302643,-1.680156 2.20314,-1.382496 z"
           sodipodi:nodetypes="ccccccccccccccccccccccccccccccccccccccc"
           inkscape:label="hair" /></g></g><g
       id="g2"
       transform="matrix(0.03573092,0.013323,-0.013323,0.03573092,29.284925,39.234424)"
       style="display:inline;fill:#3b9ce1;fill-opacity:1"
       inkscape:label="bell"><g
         id="g3"
         transform="matrix(0.87658593,0,0,0.87658593,31.470588,31.470588)"
         style="fill:#3b9ce1;fill-opacity:1"><g
           id="notifications"
           style="fill:#3b9ce1;fill-opacity:1"><path
             d="m 255,510 c 28.05,0 51,-22.95 51,-51 H 204 c 0,28.05 22.95,51 51,51 z M 420.75,357 V 216.75 C 420.75,137.7 367.2,73.95 293.25,56.1 V 38.25 C 293.25,17.85 275.4,0 255,0 234.6,0 216.75,17.85 216.75,38.25 V 56.1 C 142.8,73.95 89.25,137.7 89.25,216.75 V 357 l -51,51 v 25.5 h 433.5 V 408 Z"
             id="path6"
             inkscape:connector-curvature="0"
             style="fill:#3b9ce1;fill-opacity:1" /></g></g><g
         id="g8"
         style="fill:#3b9ce1;fill-opacity:1" /><g
         id="g10"
         style="fill:#3b9ce1;fill-opacity:1" /><g
         id="g12"
         style="fill:#3b9ce1;fill-opacity:1" /><g
         id="g14"
         style="fill:#3b9ce1;fill-opacity:1" /><g
         id="g16"
         style="fill:#3b9ce1;fill-opacity:1" /><g
         id="g18"
         style="fill:#3b9ce1;fill-opacity:1" /><g
         id="g20"
         style="fill:#3b9ce1;fill-opacity:1" /><g
         id="g22"
         style="fill:#3b9ce1;fill-opacity:1" /><g
         id="g24"
         style="fill:#3b9ce1;fill-opacity:1" /><g
         id="g26"
         style="fill:#3b9ce1;fill-opacity:1" /><g
         id="g28"
         style="fill:#3b9ce1;fill-opacity:1" /><g
         id="g30"
         style="fill:#3b9ce1;fill-opacity:1" /><g
         id="g32"
         style="fill:#3b9ce1;fill-opacity:1" /><g
         id="g34"
         style="fill:#3b9ce1;fill-opacity:1" /><g
         id="g36"
         style="fill:#3b9ce1;fill-opacity:1" /></g></g><metadata
     id="metadata132"><rdf:RDF><cc:Work
         rdf:about=""><cc:license
           rdf:resource="http://creativecommons.org/licenses/by-nc/4.0/" /></cc:Work><cc:License
         rdf:about="http://creativecommons.org/licenses/by-nc/4.0/"><cc:permits
           rdf:resource="http://creativecommons.org/ns#Reproduction" /><cc:permits
           rdf:resource="http://creativecommons.org/ns#Distribution" /><cc:requires
           rdf:resource="http://creativecommons.org/ns#Notice" /><cc:requires
           rdf:resource="http://creativecommons.org/ns#Attribution" /><cc:prohibits
           rdf:resource="http://creativecommons.org/ns#CommercialUse" /><cc:permits
           rdf:resource="http://creativecommons.org/ns#DerivativeWorks" /></cc:License></rdf:RDF></metadata></svg>
