<?xml version="1.0" encoding="UTF-8" standalone="no"?>
<svg
   enable-background="new 0 0 35 35"
   width="35"
   height="35"
   viewBox="0 0 35 35"
   version="1.1"
   id="svg20"
   sodipodi:docname="area.svg"
   inkscape:version="1.3 (0e150ed6c4, 2023-07-21)"
   xmlns:inkscape="http://www.inkscape.org/namespaces/inkscape"
   xmlns:sodipodi="http://sodipodi.sourceforge.net/DTD/sodipodi-0.dtd"
   xmlns:xlink="http://www.w3.org/1999/xlink"
   xmlns="http://www.w3.org/2000/svg"
   xmlns:svg="http://www.w3.org/2000/svg">
  <defs
     id="defs20">
    <linearGradient
       inkscape:collect="always"
       xlink:href="#b"
       id="linearGradient20"
       gradientUnits="userSpaceOnUse"
       x1=".5832"
       y1="23.7464"
       x2="34.1862"
       y2="11.5159" />
    <linearGradient
       inkscape:collect="always"
       xlink:href="#b"
       id="linearGradient21"
       gradientUnits="userSpaceOnUse"
       x1=".5832"
       y1="23.7464"
       x2="34.1862"
       y2="11.5159" />
    <linearGradient
       inkscape:collect="always"
       xlink:href="#b"
       id="linearGradient22"
       gradientUnits="userSpaceOnUse"
       x1=".5832"
       y1="23.7464"
       x2="34.1862"
       y2="11.5159" />
    <linearGradient
       inkscape:collect="always"
       xlink:href="#b"
       id="linearGradient23"
       gradientUnits="userSpaceOnUse"
       x1=".5832"
       y1="23.7464"
       x2="34.1862"
       y2="11.5159" />
    <linearGradient
       inkscape:collect="always"
       xlink:href="#b"
       id="linearGradient24"
       gradientUnits="userSpaceOnUse"
       x1=".5832"
       y1="23.7464"
       x2="34.1862"
       y2="11.5159" />
    <linearGradient
       inkscape:collect="always"
       xlink:href="#b"
       id="linearGradient25"
       gradientUnits="userSpaceOnUse"
       x1=".5832"
       y1="23.7464"
       x2="34.1862"
       y2="11.5159" />
    <linearGradient
       inkscape:collect="always"
       xlink:href="#b"
       id="linearGradient26"
       gradientUnits="userSpaceOnUse"
       x1=".5832"
       y1="23.7464"
       x2="34.1862"
       y2="11.5159" />
    <linearGradient
       inkscape:collect="always"
       xlink:href="#b"
       id="linearGradient27"
       gradientUnits="userSpaceOnUse"
       x1=".5832"
       y1="23.7464"
       x2="34.1862"
       y2="11.5159" />
    <linearGradient
       inkscape:collect="always"
       xlink:href="#b"
       id="linearGradient28"
       gradientUnits="userSpaceOnUse"
       x1=".5832"
       y1="23.7464"
       x2="34.1862"
       y2="11.5159" />
    <linearGradient
       inkscape:collect="always"
       xlink:href="#b"
       id="linearGradient29"
       gradientUnits="userSpaceOnUse"
       x1=".5832"
       y1="23.7464"
       x2="34.1862"
       y2="11.5159" />
    <linearGradient
       inkscape:collect="always"
       xlink:href="#b"
       id="linearGradient30"
       gradientUnits="userSpaceOnUse"
       x1=".5832"
       y1="23.7464"
       x2="34.1862"
       y2="11.5159" />
    <linearGradient
       inkscape:collect="always"
       xlink:href="#b"
       id="linearGradient31"
       gradientUnits="userSpaceOnUse"
       x1=".5832"
       y1="23.7464"
       x2="34.1862"
       y2="11.5159" />
    <linearGradient
       inkscape:collect="always"
       xlink:href="#b"
       id="linearGradient32"
       gradientUnits="userSpaceOnUse"
       x1=".5832"
       y1="23.7464"
       x2="34.1862"
       y2="11.5159" />
    <linearGradient
       inkscape:collect="always"
       xlink:href="#b"
       id="linearGradient33"
       gradientUnits="userSpaceOnUse"
       x1=".5832"
       y1="23.7464"
       x2="34.1862"
       y2="11.5159" />
    <linearGradient
       inkscape:collect="always"
       xlink:href="#b"
       id="linearGradient34"
       gradientUnits="userSpaceOnUse"
       x1=".5832"
       y1="23.7464"
       x2="34.1862"
       y2="11.5159" />
    <linearGradient
       inkscape:collect="always"
       xlink:href="#b"
       id="linearGradient35"
       gradientUnits="userSpaceOnUse"
       x1=".5832"
       y1="23.7464"
       x2="34.1862"
       y2="11.5159" />
  </defs>
  <sodipodi:namedview
     id="namedview20"
     pagecolor="#ffffff"
     bordercolor="#666666"
     borderopacity="1.0"
     inkscape:showpageshadow="2"
     inkscape:pageopacity="0.0"
     inkscape:pagecheckerboard="0"
     inkscape:deskcolor="#d1d1d1"
     inkscape:zoom="21.457143"
     inkscape:cx="17.5"
     inkscape:cy="17.5"
     inkscape:window-width="1920"
     inkscape:window-height="1002"
     inkscape:window-x="0"
     inkscape:window-y="0"
     inkscape:window-maximized="1"
     inkscape:current-layer="svg20" />
  <clipPath
     id="a">
    <path
       d="m17.5 19.7-16 6.5 16 6.5 16-6.5z"
       id="path1" />
  </clipPath>
  <linearGradient
     id="b"
     gradientUnits="userSpaceOnUse"
     x1=".5832"
     x2="34.1862"
     y1="23.7464"
     y2="11.5159">
    <stop
       offset="0"
       stop-color="#00f7ff"
       id="stop1" />
    <stop
       offset="1"
       stop-color="#6fff00"
       id="stop2" />
  </linearGradient>
  <clipPath
     id="c">
    <path
       d="m17.5 19.7-16 6.5 16 6.5 16-6.5z"
       id="path2" />
  </clipPath>
  <path
     d="M 17.499999,20.619653 5.0213842,25.76351 17.499999,30.81211 29.978614,25.76351 Z"
     fill="#00c9a8"
     id="path3"
     style="stroke-width:0.952569" />
  <g
     fill="#00eacb"
     id="g6"
     transform="matrix(0.95256609,0,0,0.95256609,0.83009347,0.71102256)">
    <path
       d="m 17.5,32.7 c -0.1,0 -0.3,0 -0.4,-0.1 L 4,27.3 c -0.4,-0.2 -0.7,-0.6 -0.7,-1 0,-0.4 0.3,-0.8 0.7,-1 L 17.1,20 c 0.3,-0.1 0.6,-0.1 0.8,0 L 31,25.3 c 0.4,0.2 0.7,0.6 0.7,1 0,0.4 -0.3,0.8 -0.7,1 l -13.1,5.3 c -0.1,0.1 -0.3,0.1 -0.4,0.1 z M 7.3,26.3 17.5,30.5 27.7,26.3 17.5,22.1 Z"
       id="path4" />
    <circle
       cx="17.5"
       cy="21"
       r="2.0999999"
       id="circle4" />
    <circle
       cx="4.4000001"
       cy="26.299999"
       r="2.0999999"
       id="circle5" />
    <circle
       cx="30.5"
       cy="26.299999"
       r="2.0999999"
       id="circle6" />
  </g>
  <g
     clip-path="url(#a)"
     id="g7"
     transform="matrix(0.95256609,0,0,0.95256609,0.83009347,0.71102256)">
    <path
       d="m 18.5,27.3 c -0.6,0.2 -1.5,0.2 -2,0 L 2.6,21.6 C 2,21.4 2,21 2.6,20.8 l 13.9,-5.7 c 0.6,-0.2 1.5,-0.2 2,0 l 13.9,5.7 c 0.6,0.2 0.6,0.6 0,0.8 z M 8.3,20.8 c -0.6,0.2 -0.6,0.6 0,0.8 l 8.2,3.4 c 0.6,0.2 1.5,0.2 2,0 l 8.2,-3.4 c 0.6,-0.2 0.6,-0.6 0,-0.8 l -8.2,-3.4 c -0.6,-0.2 -1.5,-0.2 -2,0 z"
       fill="#00b794"
       id="path6" />
  </g>
  <path
     d="m 18.452565,25.668254 c -0.571539,0.190512 -1.428849,0.190512 -1.905132,0 L 3.3067652,20.238627 c -0.5715396,-0.190514 -0.5715396,-0.57154 0,-0.762053 L 16.547433,14.046948 c 0.571539,-0.190514 1.428849,-0.190514 1.905132,0 l 13.240668,5.429626 c 0.57154,0.190513 0.57154,0.571539 0,0.762053 z m -9.7161733,-6.19168 c -0.5715396,0.190513 -0.5715396,0.571539 0,0.762053 l 7.8110413,3.238725 c 0.571539,0.190513 1.428849,0.190513 1.905132,0 l 7.811042,-3.238725 c 0.571539,-0.190514 0.571539,-0.57154 0,-0.762053 L 18.452565,16.23785 c -0.571539,-0.190514 -1.428849,-0.190514 -1.905132,0 z"
     fill="#00d8b5"
     id="path7"
     style="stroke-width:0.952569" />
  <path
     d="m 18.452565,19.8576 c -0.571539,0.190513 -1.428849,0.190513 -1.905132,0 L 3.3067652,14.427973 c -0.5715396,-0.190512 -0.5715396,-0.571539 0,-0.762052 L 16.547433,8.2362943 c 0.571539,-0.1905132 1.428849,-0.1905132 1.905132,0 l 13.240668,5.4296267 c 0.57154,0.190513 0.57154,0.57154 0,0.762052 z M 8.7363917,13.665921 c -0.5715396,0.190513 -0.5715396,0.57154 0,0.762052 l 7.8110413,3.238725 c 0.571539,0.190513 1.428849,0.190513 1.905132,0 l 7.811042,-3.238725 c 0.571539,-0.190512 0.571539,-0.571539 0,-0.762052 l -7.811042,-3.238725 c -0.571539,-0.190513 -1.428849,-0.190513 -1.905132,0 z"
     fill="#00baa1"
     id="path8"
     style="stroke-width:0.952569" />
  <path
     d="m 18.452565,13.951691 c -0.571539,0.190513 -1.428849,0.190513 -1.905132,0 L 3.3067652,8.5220642 c -0.5715396,-0.1905133 -0.5715396,-0.5715397 0,-0.7620529 L 16.547433,2.3303848 c 0.571539,-0.1905132 1.428849,-0.1905132 1.905132,0 l 13.240668,5.4296265 c 0.57154,0.1905132 0.57154,0.5715396 0,0.7620529 z M 8.7363917,7.7600113 c -0.476283,0.1905132 -0.476283,0.5715396 0,0.7620529 l 7.8110413,3.2387248 c 0.571539,0.190513 1.428849,0.190513 1.905132,0 l 7.811042,-3.2387248 c 0.571539,-0.1905133 0.571539,-0.5715397 0,-0.7620529 L 18.452565,4.5212867 c -0.571539,-0.1905131 -1.428849,-0.1905131 -1.905132,0 z"
     fill="#009ba0"
     id="path9"
     style="stroke-width:0.952569" />
  <circle
     cx="17.5"
     cy="30.812109"
     fill="#00eacb"
     r="2.0003886"
     id="circle9"
     style="stroke-width:0.952569" />
  <g
     fill="url(#b)"
     opacity="0.2"
     id="g20"
     style="fill:url(#linearGradient35)"
     transform="matrix(0.95256609,0,0,0.95256609,0.83009347,0.71102256)">
    <path
       d="M 17.5,20.9 4.4,26.3 17.5,31.6 30.6,26.3 Z"
       id="path10"
       style="fill:url(#linearGradient20)" />
    <path
       d="m 17.5,32.7 c -0.1,0 -0.3,0 -0.4,-0.1 L 4,27.3 c -0.4,-0.2 -0.7,-0.6 -0.7,-1 0,-0.4 0.3,-0.8 0.7,-1 L 17.1,20 c 0.3,-0.1 0.6,-0.1 0.8,0 L 31,25.3 c 0.4,0.2 0.7,0.6 0.7,1 0,0.4 -0.3,0.8 -0.7,1 l -13.1,5.3 c -0.1,0.1 -0.3,0.1 -0.4,0.1 z M 7.3,26.3 17.5,30.5 27.7,26.3 17.5,22.1 Z"
       id="path11"
       style="fill:url(#linearGradient21)" />
    <circle
       cx="17.5"
       cy="21"
       r="2.0999999"
       id="circle11"
       style="fill:url(#linearGradient22)" />
    <circle
       cx="4.4000001"
       cy="26.299999"
       r="2.0999999"
       id="circle12"
       style="fill:url(#linearGradient23)" />
    <circle
       cx="30.5"
       cy="26.299999"
       r="2.0999999"
       id="circle13"
       style="fill:url(#linearGradient24)" />
    <g
       clip-path="url(#c)"
       id="g14"
       style="fill:url(#linearGradient27)">
      <path
         d="m 18.5,27.3 c -0.6,0.2 -1.5,0.2 -2,0 L 2.6,21.6 C 2,21.4 2,21 2.6,20.8 l 13.9,-5.7 c 0.6,-0.2 1.5,-0.2 2,0 l 13.9,5.7 c 0.6,0.2 0.6,0.6 0,0.8 z M 8.3,20.8 c -0.6,0.2 -0.6,0.6 0,0.8 l 8.2,3.4 c 0.6,0.2 1.5,0.2 2,0 l 8.2,-3.4 c 0.6,-0.2 0.6,-0.6 0,-0.8 l -8.2,-3.4 c -0.6,-0.2 -1.5,-0.2 -2,0 z"
         id="path13"
         style="fill:url(#linearGradient25)" />
      <path
         d="m 18.5,27.3 c -0.6,0.2 -1.5,0.2 -2,0 L 2.6,21.6 C 2,21.4 2,21 2.6,20.8 l 13.9,-5.7 c 0.6,-0.2 1.5,-0.2 2,0 l 13.9,5.7 c 0.6,0.2 0.6,0.6 0,0.8 z M 8.3,20.8 c -0.6,0.2 -0.6,0.6 0,0.8 l 8.2,3.4 c 0.6,0.2 1.5,0.2 2,0 l 8.2,-3.4 c 0.6,-0.2 0.6,-0.6 0,-0.8 l -8.2,-3.4 c -0.6,-0.2 -1.5,-0.2 -2,0 z"
         id="path14"
         style="fill:url(#linearGradient26)" />
    </g>
    <path
       d="m 18.5,26.2 c -0.6,0.2 -1.5,0.2 -2,0 L 2.6,20.5 C 2,20.3 2,19.9 2.6,19.7 L 16.5,14 c 0.6,-0.2 1.5,-0.2 2,0 l 13.9,5.7 c 0.6,0.2 0.6,0.6 0,0.8 z M 8.3,19.7 c -0.6,0.2 -0.6,0.6 0,0.8 l 8.2,3.4 c 0.6,0.2 1.5,0.2 2,0 l 8.2,-3.4 c 0.6,-0.2 0.6,-0.6 0,-0.8 l -8.2,-3.4 c -0.6,-0.2 -1.5,-0.2 -2,0 z"
       id="path15"
       style="fill:url(#linearGradient28)" />
    <path
       d="m 18.5,26.2 c -0.6,0.2 -1.5,0.2 -2,0 L 2.6,20.5 C 2,20.3 2,19.9 2.6,19.7 L 16.5,14 c 0.6,-0.2 1.5,-0.2 2,0 l 13.9,5.7 c 0.6,0.2 0.6,0.6 0,0.8 z M 8.3,19.7 c -0.6,0.2 -0.6,0.6 0,0.8 l 8.2,3.4 c 0.6,0.2 1.5,0.2 2,0 l 8.2,-3.4 c 0.6,-0.2 0.6,-0.6 0,-0.8 l -8.2,-3.4 c -0.6,-0.2 -1.5,-0.2 -2,0 z"
       id="path16"
       style="fill:url(#linearGradient29)" />
    <path
       d="m 18.5,20.1 c -0.6,0.2 -1.5,0.2 -2,0 L 2.6,14.4 C 2,14.2 2,13.8 2.6,13.6 L 16.5,7.9 c 0.6,-0.2 1.5,-0.2 2,0 l 13.9,5.7 c 0.6,0.2 0.6,0.6 0,0.8 z M 8.3,13.6 c -0.6,0.2 -0.6,0.6 0,0.8 l 8.2,3.4 c 0.6,0.2 1.5,0.2 2,0 l 8.2,-3.4 c 0.6,-0.2 0.6,-0.6 0,-0.8 L 18.5,10.2 C 17.9,10 17,10 16.5,10.2 Z"
       id="path17"
       style="fill:url(#linearGradient30)" />
    <path
       d="m 18.5,20.1 c -0.6,0.2 -1.5,0.2 -2,0 L 2.6,14.4 C 2,14.2 2,13.8 2.6,13.6 L 16.5,7.9 c 0.6,-0.2 1.5,-0.2 2,0 l 13.9,5.7 c 0.6,0.2 0.6,0.6 0,0.8 z M 8.3,13.6 c -0.6,0.2 -0.6,0.6 0,0.8 l 8.2,3.4 c 0.6,0.2 1.5,0.2 2,0 l 8.2,-3.4 c 0.6,-0.2 0.6,-0.6 0,-0.8 L 18.5,10.2 C 17.9,10 17,10 16.5,10.2 Z"
       id="path18"
       style="fill:url(#linearGradient31)" />
    <path
       d="m 18.5,13.9 c -0.6,0.2 -1.5,0.2 -2,0 L 2.6,8.2 C 2,8 2,7.6 2.6,7.4 L 16.5,1.7 c 0.6,-0.2 1.5,-0.2 2,0 L 32.4,7.4 C 33,7.6 33,8 32.4,8.2 Z M 8.3,7.4 C 7.8,7.6 7.8,8 8.3,8.2 l 8.2,3.4 c 0.6,0.2 1.5,0.2 2,0 L 26.7,8.2 C 27.3,8 27.3,7.6 26.7,7.4 L 18.5,4 C 17.9,3.8 17,3.8 16.5,4 Z"
       id="path19"
       style="fill:url(#linearGradient32)" />
    <path
       d="m 18.5,13.9 c -0.6,0.2 -1.5,0.2 -2,0 L 2.6,8.2 C 2,8 2,7.6 2.6,7.4 L 16.5,1.7 c 0.6,-0.2 1.5,-0.2 2,0 L 32.4,7.4 C 33,7.6 33,8 32.4,8.2 Z M 8.3,7.4 C 7.8,7.6 7.8,8 8.3,8.2 l 8.2,3.4 c 0.6,0.2 1.5,0.2 2,0 L 26.7,8.2 C 27.3,8 27.3,7.6 26.7,7.4 L 18.5,4 C 17.9,3.8 17,3.8 16.5,4 Z"
       id="path20"
       style="fill:url(#linearGradient33)" />
    <circle
       cx="17.5"
       cy="31.6"
       r="2.0999999"
       id="circle20"
       style="fill:url(#linearGradient34)" />
  </g>
</svg>
