<?xml version="1.0" encoding="UTF-8" standalone="no"?>
<svg
   enable-background="new 0 0 35 35"
   width="35"
   height="35"
   viewBox="0 0 35 35"
   version="1.1"
   id="svg35"
   sodipodi:docname="goal.svg"
   inkscape:version="1.3 (0e150ed6c4, 2023-07-21)"
   xmlns:inkscape="http://www.inkscape.org/namespaces/inkscape"
   xmlns:sodipodi="http://sodipodi.sourceforge.net/DTD/sodipodi-0.dtd"
   xmlns:xlink="http://www.w3.org/1999/xlink"
   xmlns="http://www.w3.org/2000/svg"
   xmlns:svg="http://www.w3.org/2000/svg">
  <defs
     id="defs35" />
  <sodipodi:namedview
     id="namedview35"
     pagecolor="#ffffff"
     bordercolor="#666666"
     borderopacity="1.0"
     inkscape:showpageshadow="2"
     inkscape:pageopacity="0.0"
     inkscape:pagecheckerboard="0"
     inkscape:deskcolor="#d1d1d1"
     inkscape:zoom="21.457143"
     inkscape:cx="17.5"
     inkscape:cy="17.5"
     inkscape:window-width="1920"
     inkscape:window-height="1002"
     inkscape:window-x="0"
     inkscape:window-y="0"
     inkscape:window-maximized="1"
     inkscape:current-layer="svg35" />
  <linearGradient
     id="a"
     gradientUnits="userSpaceOnUse"
     x1="15.4572"
     x2="15.4572"
     y1="31.8981"
     y2="2.6575"
     gradientTransform="matrix(0.92864831,0,0,0.92864831,1.2384576,1.3014723)">
    <stop
       offset="0"
       stop-color="#ffd500"
       id="stop1" />
    <stop
       offset=".3276"
       stop-color="#ff0"
       id="stop2" />
    <stop
       offset="1"
       stop-color="#cca000"
       id="stop3" />
  </linearGradient>
  <linearGradient
     id="b"
     gradientUnits="userSpaceOnUse"
     x1="3.7537"
     x2="32.211"
     y1="22.9793"
     y2="12.6217"
     gradientTransform="matrix(0.92864831,0,0,0.92864831,1.2384576,1.3014723)">
    <stop
       offset="0"
       stop-color="#f700ff"
       id="stop4" />
    <stop
       offset="1"
       stop-color="#0080ff"
       id="stop5" />
  </linearGradient>
  <linearGradient
     id="c">
    <stop
       offset="0"
       stop-color="#ff0"
       id="stop6" />
    <stop
       offset="1"
       stop-color="#cca000"
       id="stop7" />
  </linearGradient>
  <linearGradient
     id="d"
     gradientUnits="userSpaceOnUse"
     x1="9.6687"
     x2="9.6687"
     xlink:href="#c"
     y1="29.4225"
     y2="20.3149"
     gradientTransform="matrix(0.92864831,0,0,0.92864831,1.2384576,1.3014723)" />
  <linearGradient
     id="e"
     gradientUnits="userSpaceOnUse"
     x1="4.0614"
     x2="4.0614"
     xlink:href="#c"
     y1="24.7149"
     y2="21.4193"
     gradientTransform="matrix(0.92864831,0,0,0.92864831,1.2384576,1.3014723)" />
  <linearGradient
     id="f"
     gradientUnits="userSpaceOnUse"
     x1="10.1843"
     x2="10.1843"
     xlink:href="#c"
     y1="24.2619"
     y2="20.9319"
     gradientTransform="matrix(0.92864831,0,0,0.92864831,1.2384576,1.3014723)" />
  <linearGradient
     id="g">
    <stop
       offset="0"
       stop-color="#ff0"
       id="stop8" />
    <stop
       offset="1"
       stop-color="#edba00"
       id="stop9" />
  </linearGradient>
  <linearGradient
     id="h"
     gradientUnits="userSpaceOnUse"
     x1="8.2236"
     x2="8.2236"
     xlink:href="#g"
     y1="27.6521"
     y2="30.0737"
     gradientTransform="matrix(0.92864831,0,0,0.92864831,1.2384576,1.3014723)" />
  <linearGradient
     id="i"
     gradientUnits="userSpaceOnUse"
     x1="11.5092"
     x2="11.5092"
     xlink:href="#g"
     y1="27.7809"
     y2="30.2228"
     gradientTransform="matrix(0.92864831,0,0,0.92864831,1.2384576,1.3014723)" />
  <linearGradient
     id="j"
     gradientUnits="userSpaceOnUse"
     x1="24.3984"
     x2="29.6513"
     y1="25.5053"
     y2="14.2406"
     gradientTransform="matrix(0.92864831,0,0,0.92864831,1.2384576,1.3014723)">
    <stop
       offset="0"
       stop-color="#ffc800"
       id="stop10" />
    <stop
       offset=".3056"
       stop-color="#ff0"
       id="stop11" />
    <stop
       offset=".9976"
       stop-color="#cca000"
       id="stop12" />
  </linearGradient>
  <radialGradient
     id="k"
     cx="7.7131"
     cy="16.7165"
     gradientUnits="userSpaceOnUse"
     r="2.7919"
     gradientTransform="matrix(0.92864831,0,0,0.92864831,1.2384576,1.3014723)">
    <stop
       offset="0"
       stop-color="#ff0"
       id="stop13" />
    <stop
       offset="1"
       stop-color="#f0cc00"
       id="stop14" />
  </radialGradient>
  <linearGradient
     id="l"
     gradientUnits="userSpaceOnUse"
     x1="7.743"
     x2="7.743"
     xlink:href="#c"
     y1="17.5612"
     y2="15.4981"
     gradientTransform="matrix(0.92864831,0,0,0.92864831,1.2384576,1.3014723)" />
  <linearGradient
     id="m"
     gradientUnits="userSpaceOnUse"
     x1="7.7866"
     x2="7.7866"
     xlink:href="#c"
     y1="16.2383"
     y2="10.2741"
     gradientTransform="matrix(0.92864831,0,0,0.92864831,1.2384576,1.3014723)" />
  <linearGradient
     id="n"
     gradientUnits="userSpaceOnUse"
     x1="8.6955"
     x2="8.6955"
     y1="32.3425"
     y2="18.2095"
     gradientTransform="matrix(0.92864831,0,0,0.92864831,1.2384576,1.3014723)">
    <stop
       offset="0"
       stop-color="#edd900"
       id="stop15" />
    <stop
       offset="1"
       stop-color="#e6b400"
       id="stop16" />
  </linearGradient>
  <clipPath
     id="o">
    <path
       d="m21.8 19.6c.6-1.1 1.9-6 2-6.6 3-.5 8.1 1.3 10.2 5.8-1.5.2-8.4 2.2-9.6 2.7-.2 1.1-.9 2.1-1.8 2.4-1.4.4-2.9-.1-2.7-2 .1-1.5 1.3-2.1 1.9-2.3z"
       id="path16" />
  </clipPath>
  <path
     d="m 11.546454,30.461029 c 8.07924,2.043026 13.4654,-3.993188 13.743995,-7.893511 0.185729,-2.600215 0.185729,-8.357835 -1.485837,-11.979563 -0.09286,-1.5787017 2.135891,-4.178917 4.828971,-4.6432411 -1.207243,-2.785945 -6.221944,-3.2502691 -8.26497,0.1857296 -1.950162,-1.8572966 -6.964863,-0.4643241 -6.129079,3.8074581 1.485837,-0.8357835 5.107566,-0.092865 6.129079,1.4858364 0,0 0.278594,3.250269 -1.300108,3.157405 -1.114378,-0.928649 -2.50735,-0.835784 -3.528863,-0.09286 -0.09286,-0.18573 -0.557189,-0.557189 -1.207243,-1.021513 -0.650054,-0.464325 -1.671567,-0.278595 -2.043026,-0.09286 -0.464325,0.185729 -1.950162,1.021513 -2.3216214,1.392972 -0.3714593,0.37146 -4.364647,0 -4.364647,0 C 5.3245101,14.302558 4.4887266,13.838234 3.5600783,14.209693 2.63143,14.581153 2.63143,15.974125 2.7242948,16.531314 c 0,0.742919 0.3714594,1.485837 0.9286484,1.764432 z"
     fill="url(#a)"
     id="path17"
     style="fill:url(#a);stroke-width:0.928648" />
  <path
     d="m 11.546454,30.461029 c 8.07924,2.043026 13.4654,-3.993188 13.743995,-7.893511 0.185729,-2.600215 0.185729,-8.357835 -1.485837,-11.979563 -0.09286,-1.5787017 2.135891,-4.178917 4.828971,-4.6432411 -1.207243,-2.785945 -6.221944,-3.2502691 -8.26497,0.1857296 -1.950162,-1.8572966 -6.964863,-0.4643241 -6.129079,3.8074581 1.485837,-0.8357835 5.107566,-0.092865 6.129079,1.4858364 0,0 0.278594,3.250269 -1.300108,3.157405 -1.114378,-0.928649 -2.50735,-0.835784 -3.528863,-0.09286 -0.09286,-0.18573 -0.557189,-0.557189 -1.207243,-1.021513 -0.650054,-0.464325 -1.671567,-0.278595 -2.043026,-0.09286 -0.464325,0.185729 -1.950162,1.021513 -2.3216214,1.392972 -0.3714593,0.37146 -4.364647,0 -4.364647,0 C 5.3245101,14.302558 4.4887266,13.838234 3.5600783,14.209693 2.63143,14.581153 2.63143,15.974125 2.7242948,16.531314 c 0,0.742919 0.3714594,1.485837 0.9286484,1.764432 z"
     fill="url(#b)"
     opacity="0.1"
     id="path18"
     style="fill:url(#b);stroke-width:0.928648" />
  <path
     d="m 5.8816991,21.45314 c -1.671567,1.857297 -1.9501615,6.500538 2.4144856,7.057727 4.4575123,0.557189 7.1505923,-0.650054 7.2434573,-1.392972 0.185729,-0.742919 -0.557189,-6.129079 -1.392973,-6.779133 -0.742919,-0.557189 -7.6149161,0.371459 -8.2649699,1.114378 z"
     fill="url(#d)"
     id="path19"
     style="fill:url(#d);stroke-width:0.928648" />
  <path
     d="m 5.8816991,21.45314 c -1.671567,1.857297 -1.9501615,6.500538 2.4144856,7.057727 4.4575123,0.557189 7.1505923,-0.650054 7.2434573,-1.392972 0.185729,-0.742919 -0.557189,-6.129079 -1.392973,-6.779133 -0.742919,-0.557189 -7.6149161,0.371459 -8.2649699,1.114378 z"
     fill="#cca000"
     opacity="0.46"
     id="path20"
     style="stroke-width:0.928648" />
  <path
     d="m 3.745808,21.174546 c -0.092865,0.557189 0.4643241,2.414485 0.6500538,2.785945 0.2785945,0.371459 0.557189,0.371459 0.8357835,0 0.2785945,-0.278595 0.9286483,-2.135892 1.0215131,-2.600216"
     fill="url(#e)"
     id="path21"
     style="fill:url(#e);stroke-width:0.928648" />
  <path
     d="m 9.4105627,21.174546 c 0.092865,0.557189 1.0215133,2.228756 1.3929723,2.50735 0.37146,0.278595 0.650054,0.18573 0.835784,-0.18573 0.185729,-0.371459 0.371459,-2.32162 0.278594,-2.785945"
     fill="url(#f)"
     id="path22"
     style="fill:url(#f);stroke-width:0.928648" />
  <path
     d="m 9.9677516,28.975191 c 0,-0.464324 -0.7429186,-1.671567 -1.0215131,-1.857296 -0.2785945,-0.18573 -0.557189,-0.18573 -0.7429186,0.09286 -0.1857297,0.278594 -0.4643242,1.671567 -0.4643242,1.950161"
     fill="url(#h)"
     id="path23"
     style="fill:url(#h);stroke-width:0.928648" />
  <path
     d="m 13.125156,29.068056 c 0,-0.464324 -0.742919,-1.578702 -1.021513,-1.857296 -0.278595,-0.18573 -0.557189,-0.18573 -0.742919,0.09286 -0.185729,0.278595 -0.557189,1.671567 -0.557189,2.043027"
     fill="url(#i)"
     id="path24"
     style="fill:url(#i);stroke-width:0.928648" />
  <path
     d="m 21.482991,19.502979 c 0.557189,-1.021513 1.764432,-5.57189 1.857296,-6.129079 2.785945,-0.464324 7.522052,1.207243 9.472213,5.38616 -1.392972,0.18573 -7.800646,2.043026 -8.915024,2.50735 -0.185729,1.021514 -0.835783,1.950162 -1.671567,2.228756 -1.300107,0.37146 -2.69308,-0.09286 -2.50735,-1.857296 0.09286,-1.392973 1.207243,-1.950162 1.764432,-2.135891 z"
     fill="url(#j)"
     id="path25"
     style="fill:url(#j);stroke-width:0.928648" />
  <path
     d="m 6.3460232,15.324061 c 0.9286484,-1.021513 2.8788098,-1.485837 3.9931878,-0.185729 1.114378,1.300107 0.928648,2.785945 0.09286,3.621728 -0.8357837,0.835783 -2.7859451,0.928648 -3.9003231,0.09286 -1.114378,-1.021513 -0.9286483,-2.69308 -0.1857297,-3.528864 z"
     fill="url(#k)"
     id="path26"
     style="fill:url(#k);stroke-width:0.928648" />
  <path
     d="m 7.6461309,16.06698 c 0.3714593,-0.371459 1.1143779,-0.557189 1.4858373,-0.09286 0.3714593,0.464324 0.3714593,1.114378 0,1.392973 -0.2785945,0.278594 -1.114378,0.371459 -1.4858373,0 -0.3714593,-0.37146 -0.2785945,-1.021514 0,-1.300108 z"
     fill="url(#l)"
     id="path27"
     style="fill:url(#l);stroke-width:0.928648" />
  <path
     d="m 7.6461309,16.06698 c 0.3714593,-0.371459 1.1143779,-0.557189 1.4858373,-0.09286 0.3714593,0.464324 0.3714593,1.114378 0,1.392973 -0.2785945,0.278594 -1.114378,0.371459 -1.4858373,0 -0.3714593,-0.37146 -0.2785945,-1.021514 0,-1.300108 z"
     fill="#cca000"
     opacity="0.3"
     id="path28"
     style="stroke-width:0.928648" />
  <path
     d="M 5.8816991,16.345574 C 5.6031046,16.06698 5.5102398,14.766872 5.5102398,14.581143 c 0.6500538,-0.742919 5.2932952,-3.621728 5.6647552,-3.807458 0.278594,0.464324 0.185729,3.157404 0.09286,3.435998 -0.464324,0.278595 -5.0147006,2.135891 -5.3861599,2.135891 z"
     fill="url(#m)"
     id="path29"
     style="fill:url(#m);stroke-width:0.928648" />
  <path
     d="m 11.360724,31.296812 c -0.928648,0 -1.7644317,-0.09286 -2.4144855,-0.185729 H 8.7605088 C 7.9247254,31.018218 7.2746716,30.275299 7.2746716,29.346651 7.3675364,28.510867 8.110455,27.860813 9.0391033,27.860813 h 0.2785945 c 0.6500538,0.09286 2.1358912,0.18573 2.9716752,0.09286 0.650053,-0.09286 1.300107,-0.185729 1.021513,-1.950161 -0.18573,-1.114378 -0.37146,-2.507351 -0.464324,-3.993188 0,-0.18573 -0.09286,-0.371459 -0.37146,-0.557189 -0.185729,-0.18573 -0.464324,-0.18573 -0.650054,-0.09286 -1.671567,0.557189 -5.6647544,0.650054 -8.4506993,-0.09286 -0.8357835,-0.185729 -1.3929725,-1.114378 -1.114378,-1.950161 0.1857297,-0.835783 1.114378,-1.392972 1.9501614,-1.114378 2.3216208,0.650054 5.6647547,0.464324 6.5934029,0.18573 1.114378,-0.37146 2.414486,-0.18573 3.528864,0.557189 1.021513,0.742918 1.671567,1.857296 1.764432,2.971674 0.09286,1.300108 0.185729,2.600216 0.371459,3.621729 0.18573,1.485837 0.278594,4.921836 -3.621728,5.57189 -0.464325,0.185729 -1.021514,0.185729 -1.485838,0.185729 z"
     fill="url(#n)"
     id="path30"
     style="fill:url(#n);stroke-width:0.928648" />
  <g
     fill="#cccccc"
     id="g35"
     transform="matrix(0.92864831,0,0,0.92864831,1.2384576,1.3014723)">
    <ellipse
       cx="3"
       cy="15.4"
       opacity="0.7"
       rx="0.89999998"
       ry="0.69999999"
       id="ellipse30" />
    <path
       d="m 16.2,16.7 c 0,-0.8 0.8,-1.5 1.7,-1.5 0.2,0 0.3,0 0.5,0.1 -0.2,-0.4 -0.7,-0.8 -1.3,-0.8 -0.8,0 -1.5,0.6 -1.5,1.3 0,0.4 0.2,0.8 0.6,0.9 0,0.1 0,0.1 0,0 z"
       opacity="0.7"
       id="path31" />
    <path
       d="m 18.8,5.4 c 0.4,0 0.8,0.1 1.2,0.2 -0.5,-0.5 -1.3,-0.8 -2.2,-0.8 -1.7,0 -3,1.2 -3,2.6 0,0.3 0.1,0.6 0.2,0.8 0.3,-1.6 1.9,-2.8 3.8,-2.8 z"
       opacity="0.4"
       id="path32" />
    <g
       clip-path="url(#o)"
       id="g34">
      <path
         d="M 28.5,13.2 23.9,18.5 27,12.8 Z"
         opacity="0.4"
         id="path33" />
      <path
         d="M 32.9,16.3 26.4,19 31.7,15.2 Z"
         opacity="0.4"
         id="path34" />
    </g>
  </g>
</svg>
