<?xml version="1.0" encoding="UTF-8" standalone="no"?>
<svg
   width="25"
   height="25"
   viewBox="0 0 25 25"
   fill="none"
   version="1.1"
   id="svg2"
   sodipodi:docname="turf_war.svg"
   inkscape:version="1.3 (0e150ed6c4, 2023-07-21)"
   xmlns:inkscape="http://www.inkscape.org/namespaces/inkscape"
   xmlns:sodipodi="http://sodipodi.sourceforge.net/DTD/sodipodi-0.dtd"
   xmlns="http://www.w3.org/2000/svg"
   xmlns:svg="http://www.w3.org/2000/svg">
  <defs
     id="defs2" />
  <sodipodi:namedview
     id="namedview2"
     pagecolor="#ffffff"
     bordercolor="#666666"
     borderopacity="1.0"
     inkscape:showpageshadow="2"
     inkscape:pageopacity="0.0"
     inkscape:pagecheckerboard="0"
     inkscape:deskcolor="#d1d1d1"
     inkscape:zoom="21.241488"
     inkscape:cx="10.710173"
     inkscape:cy="9.9569297"
     inkscape:window-width="1920"
     inkscape:window-height="1002"
     inkscape:window-x="0"
     inkscape:window-y="0"
     inkscape:window-maximized="1"
     inkscape:current-layer="svg2" />
  <path
     d="M 23.4375,2.8824865 21.114453,11.538266 19.856198,10.287991 7.9506731,22.117513 7.0795371,21.251959 10.564099,17.789659 9.9833149,17.212593 6.4987797,20.674895 5.6276438,19.809342 9.1121789,16.34704 8.4346375,15.673813 4.9500936,19.136114 4.0789663,18.270561 15.984483,6.440977 14.72614,5.1906932 Z"
     fill="#cff622"
     id="path1"
     style="stroke-width:0.875004" />
  <path
     d="m 1.5625,2.8824865 8.711342,2.3082067 -1.2583072,1.2502838 11.9055422,11.829584 -0.871153,0.865553 -3.484526,-3.462302 -0.580828,0.673228 3.484614,3.462301 -0.871153,0.865554 -3.484527,-3.462302 -0.677603,0.577065 3.484527,3.462301 -0.871066,0.865554 L 5.1438281,10.287991 3.8855205,11.538266 Z"
     fill="#ffffff"
     id="path2"
     style="stroke-width:0.875004" />
</svg>
